<svg width="224" height="240" viewBox="0 0 224 240" fill="none" xmlns="http://www.w3.org/2000/svg">
<path d="M223.45 157.756C222.595 174.001 217.584 188.377 208.419 200.882C199.254 213.28 186.361 222.899 169.741 229.739C153.244 236.58 134.363 240 113.1 240C78.0273 240 50.4092 230.007 30.2455 210.02C10.0818 190.033 0 161.817 0 125.371V113.828C0 90.9552 4.52155 70.9686 13.5646 53.8677C22.7299 36.66 35.8669 23.4068 52.9754 14.1082C70.084 4.70274 89.8811 0 112.367 0C144.751 0 170.78 7.48163 190.455 22.4449C210.13 37.3013 221.312 57.8223 224 84.008H159.843C159.354 69.7929 155.26 59.5858 147.561 53.3868C139.863 47.1877 128.131 44.0882 112.367 44.0882C96.3579 44.0882 84.6263 49.3253 77.1719 59.7996C69.7174 70.2739 65.8069 87.0007 65.4403 109.98V126.493C65.4403 151.396 68.9842 169.192 76.072 179.88C83.2821 190.568 95.6247 195.912 113.1 195.912C127.887 195.912 139.19 192.866 147.011 186.774C154.833 180.681 158.987 171.009 159.476 157.756H223.45Z" fill="#111113"/>
</svg>
