<svg width="224" height="240" viewBox="0 0 224 240" fill="none" xmlns="http://www.w3.org/2000/svg">
<path d="M157.236 240V155.769H118.923L72.2642 240H0L56.7113 136.154C32.0542 122.198 19.7257 101.703 19.7257 74.6703C19.7257 50.9341 28.7034 32.5824 46.6588 19.6154C64.6142 6.53846 90.4725 0 124.234 0H224V240H157.236ZM86.1101 79.7802C86.1101 91.978 88.9551 100.824 94.6452 106.319C100.335 111.813 109.882 114.56 123.285 114.56H157.236V44.6703H123.665C110.388 44.6703 100.778 47.6923 94.8349 53.7363C89.0183 59.6703 86.1101 68.3516 86.1101 79.7802Z" fill="#111113"/>
</svg>
